<?xml version="1.0" ?>
<!DOCTYPE svg  PUBLIC '-//W3C//DTD SVG 1.1//EN'  'http://www.w3.org/Graphics/SVG/1.1/DTD/svg11.dtd'>
<svg style="enable-background:new 0 0 512 512;" version="1.1" viewBox="0 0 512 512" xml:space="preserve"
 xmlns="http://www.w3.org/2000/svg" xmlns:xlink="http://www.w3.org/1999/xlink" width="128px" height="128px">
 <g><g id="_x32_0-Search"/><g id="_x31_9-Web_Page"/><g id="_x31_8-Wifi"/><g id="_x31_7-Hotspot"/><g id="_x31_6-Satelite"/><g id="_x31_5-Receiver"/><g id="_x31_4-Receiver"/><g id="_x31_3-Receiver"/><g id="_x31_2-Ethernet"/><g id="_x31_1-Code"/><g id="_x31_0-Homegroup"/><g id="_x30_9-Sharing_Option"/><g id="_x30_8-Data"/><g id="_x30_7-Connectivity"><g><path d="M460.896,206.862c0-90.106-73.266-163.859-163.856-163.862c-0.005,0-0.009,0-0.014,0      c-76.412,0.003-142.583,52.887-159.669,126.982H80.82c-20.854,0-37.82,16.966-37.82,37.819v156.462      c0,20.854,16.966,37.82,37.82,37.82h91.418L164.148,443h-26.934c-7.18,0-13,5.82-13,13s5.82,13,13,13      c7.244,0,132.023,0,139.308,0c7.18,0,13-5.82,13-13s-5.82-13-13-13h-26.934l-8.09-40.916h91.418      c20.854,0,37.82-16.966,37.82-37.82v-11.053C426.331,325.191,460.896,268.311,460.896,206.862z M250.946,169.982      c1.693-9.165,3.989-18.13,6.892-26.852h26.196v26.852H250.946z M284.034,117.13h-15.41c4.464-8.905,9.606-17.479,15.41-25.671      V117.13z M310.034,91.085c6.058,8.373,11.305,17.038,15.763,26.045h-15.763V91.085z M310.034,143.13h26.155      c2.804,9.02,4.944,18.378,6.432,28.12c-6.071-1.613-7.885-1.268-32.587-1.268V143.13z M434.279,193.862h-63.382      c-0.835-17.819-3.414-34.705-7.758-50.732h56.112C427.332,158.564,432.573,175.706,434.279,193.862z M370.735,219.862h63.526      c-1.699,17.964-6.879,35.152-15.006,50.731h-48.519V219.862z M401.609,117.13h-47.384c-6.57-15.677-15.056-30.472-25.511-44.451      C357.544,79.485,382.907,95.365,401.609,117.13z M265.62,72.55c-10.31,13.907-18.907,28.832-25.689,44.58h-47.854      C210.91,95.057,236.544,79.24,265.62,72.55z M174.614,143.13h55.995c-2.544,8.76-4.563,17.722-6.051,26.852h-60.413      C166.726,160.552,170.255,151.571,174.614,143.13z M223.084,443h-32.433l8.09-40.916h16.253L223.084,443z M332.916,376.084      c-15.686,0-245.145,0-252.096,0c-6.518,0-11.82-5.302-11.82-11.82V207.802c0-6.517,5.302-11.819,11.82-11.819h252.096      c6.518,0,11.82,5.302,11.82,11.819c0,4.82,0,151.643,0,156.462C344.735,370.782,339.433,376.084,332.916,376.084z       M370.735,323.385v-26.792h30.933C392.829,306.911,382.441,315.976,370.735,323.385z" style="fill:#2175AA;"/></g></g><g id="_x30_6-Computer"/><g id="_x30_5-Laptop"/><g id="_x30_4-Mobile"/><g id="_x30_3-Network"/><g id="_x30_2-Click"/><g id="_x30_1-Website"/></g></svg>