<?xml version="1.0" ?>
<svg id="Layer_1" style="enable-background:new 0 0 512 512;" version="1.1" viewBox="0 0 512 512" 
xml:space="preserve" xmlns="http://www.w3.org/2000/svg" xmlns:xlink="http://www.w3.org/1999/xlink"
height="30px" width="30px">
<g id="XMLID_119_"><path d="M4.5,450.2H74V61.8H4.5V450.2z M49.1,70.8h17.4v15.6H49.1V70.8z M49.1,98.1h17.4v15.6H49.1V98.1z    M49.1,125.4h17.4v15.6H49.1V125.4z M49.1,152.7h17.4v15.6H49.1V152.7z M49.1,180h17.4v15.6H49.1V180z M49.1,207.3h17.4v15.6H49.1   V207.3z M49.1,234.6h17.4v15.6H49.1V234.6z M49.1,261.9h17.4v15.6H49.1V261.9z M49.1,289.2h17.4v15.6H49.1V289.2z M49.1,316.5h17.4   V332H49.1V316.5z M49.1,343.8h17.4v15.6H49.1V343.8z M49.1,371.1h17.4v15.6H49.1V371.1z M49.1,398.3h17.4v15.6H49.1V398.3z    M49.1,425.6h17.4v15.6H49.1V425.6z M12,70.8h17.4v15.6H12V70.8z M12,98.1h17.4v15.6H12V98.1z M12,125.4h17.4v15.6H12V125.4z    M12,152.7h17.4v15.6H12V152.7z M12,180h17.4v15.6H12V180z M12,207.3h17.4v15.6H12V207.3z M12,234.6h17.4v15.6H12V234.6z M12,261.9   h17.4v15.6H12V261.9z M12,289.2h17.4v15.6H12V289.2z M12,316.5h17.4V332H12V316.5z M12,343.8h17.4v15.6H12V343.8z M12,371.1h17.4   v15.6H12V371.1z M12,398.3h17.4v15.6H12V398.3z M12,425.6h17.4v15.6H12V425.6z" id="XMLID_1231_"/><path d="M438,61.8v388.4h69.5V61.8H438z M462.9,441.2h-17.4v-15.6h17.4V441.2z M462.9,413.9h-17.4v-15.6h17.4   V413.9z M462.9,386.6h-17.4v-15.6h17.4V386.6z M462.9,359.3h-17.4v-15.6h17.4V359.3z M462.9,332h-17.4v-15.6h17.4V332z    M462.9,304.7h-17.4v-15.6h17.4V304.7z M462.9,277.4h-17.4v-15.6h17.4V277.4z M462.9,250.1h-17.4v-15.6h17.4V250.1z M462.9,222.8   h-17.4v-15.6h17.4V222.8z M462.9,195.5h-17.4V180h17.4V195.5z M462.9,168.2h-17.4v-15.6h17.4V168.2z M462.9,140.9h-17.4v-15.6h17.4   V140.9z M462.9,113.7h-17.4V98.1h17.4V113.7z M462.9,86.4h-17.4V70.8h17.4V86.4z M500,441.2h-17.4v-15.6H500V441.2z M500,413.9   h-17.4v-15.6H500V413.9z M500,386.6h-17.4v-15.6H500V386.6z M500,359.3h-17.4v-15.6H500V359.3z M500,332h-17.4v-15.6H500V332z    M500,304.7h-17.4v-15.6H500V304.7z M500,277.4h-17.4v-15.6H500V277.4z M500,250.1h-17.4v-15.6H500V250.1z M500,222.8h-17.4v-15.6   H500V222.8z M500,195.5h-17.4V180H500V195.5z M500,168.2h-17.4v-15.6H500V168.2z M500,140.9h-17.4v-15.6H500V140.9z M500,113.7   h-17.4V98.1H500V113.7z M500,86.4h-17.4V70.8H500V86.4z" id="XMLID_1263_"/><path d="M373.3,450.2h62.4V222.3h-61.4L373.3,450.2z M406,226.1h26.9v6.9H406V226.1z M406,236.8h26.9v6.9H406   V236.8z M406,247.5h26.9v6.9H406V247.5z M406,258.1h26.9v6.9H406V258.1z M406,268.8h26.9v6.9H406V268.8z M406,279.4h26.9v6.9H406   V279.4z M406,290.1h26.9v6.9H406V290.1z M406,300.8h26.9v6.9H406V300.8z M406,311.4h26.9v6.9H406V311.4z M406,322.1h26.9v6.9H406   V322.1z M406,332.8h26.9v6.9H406V332.8z M406,343.4h26.9v6.9H406V343.4z M406,354.1h26.9v6.9H406V354.1z M406,364.8h26.9v6.9H406   V364.8z M406,375.4h26.9v6.9H406V375.4z M406,386.1h26.9v6.9H406V386.1z M406,396.8h26.9v6.9H406V396.8z M406,407.4h26.9v6.9H406   V407.4z M406,418.1h26.9v6.9H406V418.1z M406,428.8h26.9v6.9H406V428.8z M406,439.4h26.9v6.9H406V439.4z M376.7,226.1h26.4v6.9   h-26.4V226.1z M376.7,236.8h26.4v6.9h-26.4V236.8z M376.7,247.5h26.4v6.9h-26.4V247.5z M376.7,258.1h26.4v6.9h-26.4V258.1z    M376.7,268.8h26.4v6.9h-26.4V268.8z M376.7,279.4h26.4v6.9h-26.4V279.4z M376.7,290.1h26.4v6.9h-26.4V290.1z M376.7,300.8h26.4   v6.9h-26.4V300.8z M376.7,311.4h26.4v6.9h-26.4V311.4z M376.7,322.1h26.4v6.9h-26.4V322.1z M376.7,332.8h26.4v6.9h-26.4V332.8z    M376.7,343.4h26.4v6.9h-26.4V343.4z M376.7,354.1h26.4v6.9h-26.4V354.1z M376.7,364.8h26.4v6.9h-26.4V364.8z M376.7,375.4h26.4   v6.9h-26.4V375.4z M376.7,386.1h26.4v6.9h-26.4V386.1z M376.7,396.8h26.4v6.9h-26.4V396.8z M376.7,407.4h26.4v6.9h-26.4V407.4z    M376.7,418.1h26.4v6.9h-26.4V418.1z M376.7,428.8h26.4v6.9h-26.4V428.8z M376.7,439.4h26.4v6.9h-26.4V439.4z" id="XMLID_1453_"/><g id="XMLID_118_"><path d="M77.1,450.2H372V301.6H77.1V450.2z M331.3,372.1H345v11.7h-13.7V372.1z M331.3,384.8H345v11h-13.7V384.8z     M331.3,399.2H345v11.7h-13.7V399.2z M331.3,411.9H345v11h-13.7V411.9z M316.6,372.1h13.7v11.7h-13.7V372.1z M316.6,384.8h13.7v11    h-13.7V384.8z M316.6,399.2h13.7v11.7h-13.7V399.2z M316.6,411.9h13.7v11h-13.7V411.9z M299.2,372.1h13.7v11.7h-13.7V372.1z     M299.2,384.8h13.7v11h-13.7V384.8z M299.2,399.2h13.7v11.7h-13.7V399.2z M299.2,411.9h13.7v11h-13.7V411.9z M284.5,372.1h13.7    v11.7h-13.7V372.1z M284.5,384.8h13.7v11h-13.7V384.8z M284.5,399.2h13.7v11.7h-13.7V399.2z M284.5,411.9h13.7v11h-13.7V411.9z     M191,362.9h66.1v83H191V362.9z M149.9,372.1h13.7v11.7h-13.7V372.1z M149.9,384.8h13.7v11h-13.7V384.8z M149.9,399.2h13.7v11.7    h-13.7V399.2z M149.9,411.9h13.7v11h-13.7V411.9z M135.2,372.1h13.7v11.7h-13.7V372.1z M135.2,384.8h13.7v11h-13.7V384.8z     M135.2,399.2h13.7v11.7h-13.7V399.2z M135.2,411.9h13.7v11h-13.7V411.9z M117.9,372.1h13.7v11.7h-13.7V372.1z M117.9,384.8h13.7    v11h-13.7V384.8z M117.9,399.2h13.7v11.7h-13.7V399.2z M117.9,411.9h13.7v11h-13.7V411.9z M103.2,372.1h13.7v11.7h-13.7V372.1z     M103.2,384.8h13.7v11h-13.7V384.8z M103.2,399.2h13.7v11.7h-13.7V399.2z M103.2,411.9h13.7v11h-13.7V411.9z" id="XMLID_126_"/><path d="M77.1,141.1v157.8H372V141.1H77.1z M127.3,292.6H97v-24.4h30.3V292.6z M127.3,266H97v-25.9h30.3V266z     M128,220.9H97.7v-24.1H128V220.9z M128,194.7H97.7v-26.3H128V194.7z M159.8,292.6h-30.3v-24.4h30.3V292.6z M159.8,266h-30.3    v-25.9h30.3V266z M160.4,220.9h-30.3v-24.1h30.3V220.9z M160.4,194.7h-30.3v-26.3h30.3V194.7z M211.2,220.9h-25.5v-25.2h25.5    V220.9z M211.2,193.5h-25.5v-25.2h25.5V193.5z M240.2,220.9h-26.7v-25.2h26.7V220.9z M240.2,193.5h-26.7v-25.2h26.7V193.5z     M269.6,220.9h-27.2v-25.2h27.2V220.9z M269.6,193.5h-27.2v-25.2h27.2V193.5z M323.9,292.6h-30.3v-23.6h30.3V292.6z M323.9,266.8    h-30.3v-26.8h30.3V266.8z M325.1,220.9h-30.3v-25.2h30.3V220.9z M325.1,193.5h-30.3v-25.2h30.3V193.5z M356.3,292.6h-30.3v-23.6    h30.3V292.6z M356.3,266.8h-30.3v-26.8h30.3V266.8z M357.6,220.9h-30.3v-25.2h30.3V220.9z M357.6,193.5h-30.3v-25.2h30.3V193.5z" id="XMLID_1059_"/></g></g></svg>